# xmcd
#
# Track frame offsets: 
#        150
#        2306
#        24537
#        41777
#        59875
#        76895
#        97725
#        118267
#        136748
#        163364
#        181251
#        201738
#        223264
#        243853
#
# Disc length: 3570 seconds
#
# Revision: 0
# Processed by: cddbd v1.5.2PL0 Copyright (c) Steve Scherf et al.
# Submitted via: ExactAudioCopy v0.99pb5
#
DISCID=c50df00e
DTITLE=Big Lurch - It's All Bad
DYEAR=2004
DGENRE=Gangsta
TTITLE0=Money Man (Skit)
TTITLE1=Texas Boy Feat. Lil' Keke
TTITLE2=Gimme Ya Love
TTITLE3=Cali Girl Feat. Too Short
TTITLE4=Da Riddler
TTITLE5=I Can Do This
TTITLE6=Ten Toes
TTITLE7=Gangsta Gangsta
TTITLE8=Can U Deal With This Feat. C-Bo, Killa Tay, Roger Troutman II
TTITLE9=Tribal Wars Feat Lil Bosko - It Is What It Is (Skit)
TTITLE10=On Da Run Feat. Jay Boi - Stop Playin (Skit)
TTITLE11=I Did It To You!
TTITLE12=Renegade Drug Dealer
TTITLE13=America - Outro (Skit)
EXTD=
EXTT0=
EXTT1=
EXTT2=
EXTT3=
EXTT4=
EXTT5=
EXTT6=
EXTT7=
EXTT8=
EXTT9=
EXTT10=
EXTT11=
EXTT12=
EXTT13=
PLAYORDER=
